<svg width="83" height="26" viewBox="0 0 83 26" fill="none" xmlns="http://www.w3.org/2000/svg">
<path fill-rule="evenodd" clip-rule="evenodd" d="M57.2379 18.6031C56.0033 19.9399 54.4177 20.6189 52.5262 20.6189C50.6338 20.6189 49.0483 19.9399 47.8144 18.6031C46.6359 17.3298 45.9588 15.2937 45.9588 13.0189C45.9588 10.7985 46.6434 8.79027 47.8346 7.50786C49.0812 6.17108 50.6593 5.4891 52.5247 5.48381C54.3931 5.4891 55.9711 6.17108 57.2169 7.50786C58.4097 8.79027 59.0928 10.7985 59.0928 13.0189C59.0928 15.2937 58.4164 17.3298 57.2379 18.6031ZM40.6716 13.0189C40.6716 13.1216 40.6761 13.2228 40.6791 13.324C38.786 11.5847 36.0489 10.9374 34.3766 10.5998C31.2826 9.94126 28.9188 9.33857 28.9188 7.11514C28.9188 5.5465 30.3106 4.40532 32.9841 4.60093C35.4271 4.77992 36.456 6.28739 36.7381 7.74199C36.7785 7.98065 36.8877 8.15435 37.1571 8.15662L41.5508 8.19438C41.5718 8.19438 41.5897 8.19211 41.6084 8.1906C40.9889 9.64898 40.6716 11.2728 40.6716 13.0189ZM33.1988 21.177C31.0738 21.177 28.7325 20.415 28.193 17.4665C28.1474 17.1848 28.0157 17.0685 27.8017 17.0625L23.5539 17.0051V9.42618C24.1121 11.6474 25.961 13.185 29.9597 14.0936C32.6362 14.7401 37.2791 15.1509 37.2791 17.9242C37.2791 19.8576 35.8686 21.2223 33.1988 21.177ZM12.0413 20.6219C8.6143 20.6219 5.47464 17.8993 5.47464 13.0219C5.47464 9.19508 7.82864 5.48683 12.0637 5.48683C13.8985 5.48683 18.5503 6.12124 18.5503 13.0219C18.5503 19.9407 13.6934 20.6219 12.0405 20.6219H12.0413ZM64.2535 11.1602C65.2285 12.4728 66.9884 13.4448 69.8474 14.0943C72.5232 14.7408 77.1668 15.1517 77.1668 17.9249C77.1668 19.8584 75.7556 21.2231 73.0866 21.1778C70.9623 21.1778 68.6195 20.4157 68.0808 17.4673C68.0359 17.1856 67.9042 17.0693 67.6895 17.0632L63.7537 17.0103C64.1689 15.774 64.3807 14.435 64.3807 13.0196C64.3805 12.3976 64.338 11.7764 64.2535 11.1602ZM72.7963 25.0371C77.5095 25.0371 83.0645 23.266 82.6298 17.5216C82.1494 12.4222 76.8922 11.1308 74.2644 10.6006C71.1696 9.94201 68.8059 9.33933 68.8059 7.11589C68.8059 5.54725 70.1976 4.40608 72.8719 4.60169C75.3149 4.78068 76.3437 6.28814 76.6258 7.74274C76.6662 7.9814 76.7762 8.15511 77.0449 8.15737L81.4386 8.19514C81.773 8.1974 81.8771 8.02218 81.8352 7.78202C80.9747 2.46661 76.575 0.962921 72.5262 0.962921C68.4834 0.962921 63.6122 2.10938 63.2666 7.18537C63.2546 7.38174 63.2501 7.57508 63.2501 7.76465C62.6066 6.41427 61.6788 5.17416 60.4831 4.07604C58.2757 2.06709 55.5237 0.990865 52.5224 0.964432H52.4229C50.9893 0.964432 49.5863 1.23103 48.2522 1.7597C46.8961 2.3011 45.6483 3.08587 44.5693 4.07604C43.4372 5.11525 42.543 6.28135 41.904 7.54789C40.9522 2.42507 36.6258 0.962921 32.6376 0.962921C28.9263 0.962921 24.5161 1.9319 23.5539 6.02305V1.96211C23.5537 1.85808 23.5126 1.75838 23.4397 1.6849C23.3667 1.61141 23.2679 1.57014 23.1648 1.57014H19.027C18.9239 1.57034 18.8251 1.6118 18.7523 1.68543C18.6795 1.75906 18.6386 1.85884 18.6386 1.96286V3.05797C18.6386 3.24225 18.5167 3.30644 18.3678 3.1992C16.8959 2.12146 14.7185 0.965187 12.0982 0.965187C10.6256 0.965187 9.21964 1.2265 7.91843 1.74158C6.61647 2.25816 5.37887 3.04437 4.24302 4.07906C2.95004 5.2663 1.96535 6.6197 1.3196 8.10148C0.673864 9.58327 0.34613 11.2388 0.34613 13.0211C0.34613 14.6849 0.636452 16.2453 1.20812 17.6553C1.77978 19.0654 2.65 20.3697 3.79557 21.5327C4.94039 22.6958 6.2214 23.5794 7.60042 24.161C8.97945 24.7403 10.4991 25.034 12.1199 25.034C14.9049 25.034 16.9947 23.837 18.364 22.7487C18.5152 22.6324 18.6386 22.6951 18.6386 22.8854V24.0356C18.6386 24.2516 18.8137 24.4283 19.0277 24.4283H23.1655C23.2685 24.4279 23.3672 24.3864 23.44 24.3128C23.5127 24.2392 23.5537 24.1396 23.5539 24.0356V20.1612C25.5046 24.7909 30.4752 25.0363 32.9085 25.0363C36.976 25.0363 41.6668 23.7146 42.5976 19.6605C43.0451 20.3315 43.5555 20.9574 44.1218 21.5297C46.3396 23.7826 49.2458 24.994 52.5299 25.0303H52.6646C54.2239 25.0303 55.7287 24.7282 57.1369 24.1308C58.5586 23.524 59.8478 22.6401 60.9305 21.5297C61.7405 20.7147 62.4323 19.7881 62.9852 18.7776C64.46 24.7463 70.1407 25.0363 72.7963 25.0363V25.0371Z" fill="#3C3C3B"/>
</svg>
