<svg width="105" height="28" viewBox="0 0 105 28" fill="none" xmlns="http://www.w3.org/2000/svg">
<path d="M14.9266 2.07096C15.1159 1.70976 15.2571 1.32228 15.5001 0.990631C15.9171 1.69443 16.24 2.44749 16.6209 3.1699C16.7216 3.39209 16.8278 3.6121 16.9416 3.82772C17.0434 4.04883 17.1507 4.26774 17.2656 4.48227C17.9935 6.02997 18.8079 7.53499 19.5368 9.0816C19.6562 9.29504 19.7612 9.51614 19.8565 9.74053C20.6391 11.3068 21.4206 12.8731 22.1966 14.4416C22.2951 14.6266 22.3772 14.8193 22.4659 15.0086C22.5195 15.1104 22.5731 15.2122 22.6279 15.314C23.4554 17.0336 24.343 18.7225 25.1618 20.4464C25.2351 20.592 25.3052 20.7386 25.3785 20.8853C26.0965 22.2535 26.7784 23.7147 27.9846 24.7294C28.6458 25.2887 29.4984 25.5164 30.2876 25.8119C30.2952 25.8743 30.3128 26.0002 30.3215 26.0626C30.2952 26.1239 30.2438 26.2454 30.2186 26.3067C25.2658 26.2957 20.3129 26.3187 15.3611 26.2957L15.3545 25.7878C16.0923 25.605 16.8639 25.3062 17.293 24.6385C17.5327 24.1066 17.5174 23.5287 17.3773 22.9748C17.3357 22.8314 17.3029 22.6859 17.2678 22.5425C17.1682 22.2469 17.0664 21.9514 16.9657 21.6559C16.9077 21.5169 16.853 21.3779 16.7961 21.2399C16.7282 21.0561 16.6527 20.8766 16.5706 20.6981C16.5093 20.5471 16.4469 20.396 16.3856 20.245C13.6131 20.2516 10.8395 20.2373 8.06698 20.2516C7.96956 21.275 7.99802 22.3159 8.18409 23.3284C8.36141 24.2938 8.90322 25.2132 9.74274 25.7441C9.74822 25.9301 9.74931 26.1184 9.74931 26.3056C6.6955 26.299 3.64168 26.3132 0.587865 26.299C0.584581 26.1271 0.581298 25.9553 0.57692 25.7846C1.74919 25.408 2.70364 24.5816 3.52456 23.6929C4.65305 22.4155 5.58124 20.9707 6.39778 19.4788C6.56415 19.1942 6.70644 18.8954 6.875 18.6119C6.92754 18.4992 6.98008 18.3864 7.03481 18.2759C7.71781 16.934 8.3844 15.5833 9.0269 14.2227C9.10899 14.0804 9.17795 13.9316 9.23815 13.7794C9.29069 13.6766 9.34432 13.5759 9.40015 13.4752C9.48881 13.2858 9.5698 13.0921 9.66503 12.906C10.2222 11.737 10.8121 10.5844 11.3736 9.41763C11.4678 9.23265 11.551 9.0422 11.6385 8.85503C11.7524 8.63721 11.8552 8.41283 11.9548 8.18735C12.8611 6.34302 13.7652 4.4954 14.6562 2.64341C14.7471 2.45296 14.8368 2.26141 14.9266 2.07096ZM11.5444 10.4454C11.4918 10.579 11.4338 10.7103 11.3769 10.8427C10.6359 12.2668 9.92991 13.7116 9.33119 15.2024C9.26442 15.3863 9.19765 15.569 9.12651 15.7507C9.07397 15.9018 9.01924 16.0528 8.9678 16.205C8.58689 17.3105 8.29136 18.4499 8.14359 19.6112H16.0397C15.5756 18.5769 15.0667 17.5622 14.5851 16.5344C14.4975 16.3462 14.4209 16.1524 14.3257 15.9686C13.5496 14.3267 12.7484 12.698 11.9756 11.0562C11.9483 11.0026 11.8946 10.8953 11.8673 10.8406C11.8136 10.7026 11.7556 10.5647 11.7009 10.4268C11.6615 10.4312 11.5838 10.441 11.5444 10.4454ZM86.55 1.55652C86.8904 1.43283 87.2232 1.28397 87.58 1.20954C87.5833 2.71237 87.5658 4.2141 87.5899 5.71693C89.1244 4.13201 90.8046 2.57446 92.893 1.76558C93.0298 1.71194 93.1688 1.66269 93.3089 1.60906C93.4206 1.5795 93.5333 1.54886 93.6471 1.51711C93.7883 1.47771 93.9328 1.4394 94.0762 1.39671C94.2601 1.37044 94.4494 1.34636 94.6311 1.29492C95.6513 1.15372 96.6824 1.13621 97.7014 1.2993C97.8459 1.34089 97.9925 1.37154 98.1436 1.40218C98.2848 1.45472 98.4282 1.50288 98.5726 1.55323C98.7511 1.61562 98.9262 1.69334 99.0969 1.77762C99.8434 2.18042 100.425 2.84372 100.799 3.59896C100.862 3.78285 100.938 3.96236 101.019 4.14077C101.051 4.25132 101.085 4.36077 101.121 4.47132C101.151 4.58297 101.184 4.69571 101.219 4.80735C101.38 5.53633 101.493 6.27625 101.504 7.02493C101.591 7.37409 101.55 7.73639 101.558 8.09212C101.561 12.7615 101.552 17.432 101.563 22.1014C101.577 22.5808 101.547 23.0679 101.651 23.5396C101.702 24.1438 101.849 24.8159 102.353 25.2077C102.944 25.6521 103.715 25.6904 104.423 25.7758C104.416 25.9444 104.418 26.114 104.398 26.2826C103.08 26.3351 101.757 26.2891 100.438 26.3045C97.5011 26.3012 94.5644 26.311 91.6288 26.3001C91.4744 26.1742 91.5576 25.9553 91.5303 25.7856C92.2636 25.7331 93.1097 25.4792 93.4107 24.7327C93.46 24.5893 93.5092 24.4448 93.5639 24.3025C93.5858 24.1154 93.6066 23.9271 93.6614 23.7476C93.7489 22.5107 93.7139 21.2706 93.7227 20.0326C93.715 16.4907 93.7424 12.9487 93.7051 9.40668C93.6745 8.86707 93.727 8.31979 93.6231 7.78565C93.6034 7.56017 93.5847 7.33469 93.5585 7.10921C93.5158 6.96035 93.4873 6.80711 93.4622 6.65497C93.4085 6.51596 93.3604 6.37585 93.3133 6.23575C92.9652 5.38309 92.0206 4.88726 91.1297 4.86865C89.7647 4.85442 88.5224 5.62389 87.5964 6.56521C87.5548 11.0507 87.591 15.5417 87.5789 20.0283C87.5778 21.0911 87.5767 22.1528 87.6117 23.2145C87.6741 23.5002 87.6906 23.7925 87.7124 24.0836C87.7694 24.262 87.8186 24.4426 87.8766 24.6221C88.1229 25.4233 89.0281 25.6466 89.7647 25.7167C89.7647 25.8831 89.7658 26.0494 89.7691 26.2158C85.1632 26.2213 80.5573 26.2169 75.9514 26.218C75.9514 26.0505 75.9514 25.8831 75.9547 25.7156C77.0186 25.6401 78.2992 25.6762 79.0479 24.7765C79.7835 23.7552 79.6532 22.421 79.7682 21.2356C79.8032 18.1719 79.7769 15.1082 79.7846 12.0446C79.7988 11.1054 79.6992 10.1718 79.6839 9.23374L79.6226 9.2425C79.5799 8.13371 79.2329 6.93408 78.3277 6.22152C77.5878 5.602 76.595 5.4827 75.6778 5.33712C75.6625 5.17841 75.6482 5.0186 75.634 4.85989C76.5753 4.65193 77.5079 4.39799 78.4481 4.18236C78.6221 4.12654 78.7995 4.07838 78.9724 4.01599C79.0337 4.00504 79.1541 3.98206 79.2143 3.97111C79.3861 3.91419 79.5624 3.86494 79.7364 3.81131C81.5183 3.30781 83.2685 2.69924 85.0176 2.09285C85.1227 2.05345 85.2289 2.01514 85.3373 1.97902C85.6328 1.87613 85.9272 1.76996 86.2227 1.66707C86.33 1.62876 86.4395 1.59154 86.55 1.55652ZM59.6163 1.55104C60.9253 1.25442 62.2738 1.3584 63.6026 1.39014L63.5928 1.46129C63.8303 1.46895 64.0689 1.48318 64.3064 1.50836C64.487 1.56637 64.6764 1.59154 64.8657 1.61781C65.0474 1.66707 65.2324 1.70538 65.4163 1.75573C65.5575 1.79404 65.7042 1.82906 65.8465 1.87284C65.9056 1.88707 66.0227 1.91663 66.0818 1.93086C66.1902 1.96807 66.2996 2.00419 66.4102 2.04031C66.5459 2.09395 66.686 2.14539 66.8239 2.19793C68.4439 2.80212 69.916 3.77847 71.1595 4.97482C72.7017 6.528 73.8477 8.48945 74.3862 10.614C74.4234 10.7617 74.4552 10.9095 74.4935 11.0573C74.5931 11.5816 74.696 12.1102 74.6774 12.6477L74.7485 12.6411C74.7321 13.277 74.8251 13.9261 74.6927 14.5522C74.6653 14.8784 74.6752 15.2111 74.5898 15.5296C74.5613 15.7135 74.5373 15.8996 74.4968 16.0824C73.8313 19.2052 71.9016 21.9799 69.3699 23.8888C68.1571 24.7896 66.8173 25.5197 65.3966 26.033C65.2883 26.0669 65.181 26.1009 65.0737 26.1326C64.8209 26.2158 64.5669 26.2946 64.3108 26.3614C63.9507 26.4632 63.5764 26.5059 63.2184 26.6142C63.0039 26.6394 62.7894 26.6602 62.577 26.6876C62.1775 26.7806 61.7638 26.7521 61.3588 26.7806C61.2154 26.7948 61.0731 26.8134 60.9319 26.8309C60.3562 26.7095 59.7531 26.8266 59.1795 26.6821C58.9935 26.6591 58.8074 26.6405 58.6224 26.6197C58.4462 26.5507 58.2579 26.5321 58.074 26.5048C57.9252 26.4599 57.7741 26.4282 57.6253 26.3986C55.6583 25.8688 53.8195 24.8695 52.3265 23.4816C50.8861 22.1419 49.7762 20.4486 49.1096 18.5988C49.0713 18.4915 49.0341 18.3853 48.998 18.2781C48.9618 18.1642 48.9246 18.0504 48.8885 17.9377C48.848 17.7811 48.8217 17.6202 48.7976 17.4615L48.7364 17.455C48.721 17.3247 48.7057 17.1934 48.6893 17.0631C48.559 16.5771 48.489 16.0714 48.489 15.5679L48.4189 15.6106C48.3992 14.874 48.4025 14.1363 48.4146 13.3996L48.4857 13.4182C48.4912 13.1249 48.5087 12.8305 48.5207 12.5371L48.5908 12.5295C48.5984 12.293 48.6083 12.0533 48.6805 11.8268C48.7101 11.679 48.7385 11.5312 48.7856 11.3878C48.8228 11.2444 48.86 11.1 48.8994 10.9566C48.9312 10.8427 48.964 10.73 48.998 10.6173C49.0352 10.51 49.0746 10.4016 49.114 10.2944C50.457 6.54004 53.6049 3.56394 57.3242 2.19902C57.4622 2.14429 57.599 2.09066 57.738 2.03484C57.9252 1.97902 58.1112 1.91991 58.3006 1.86628C58.4122 1.83125 58.525 1.79732 58.6388 1.76448C58.9595 1.67035 59.2868 1.60139 59.6163 1.55104ZM54.3646 5.36667C54.323 5.51115 54.2836 5.65673 54.242 5.80121C54.1172 6.52362 54.1905 7.26682 54.3657 7.97391C54.7838 9.72411 55.5029 11.3813 56.1936 13.0373C56.3435 13.3602 56.488 13.6864 56.6237 14.0159C57.3494 15.6106 58.1572 17.1649 58.9759 18.7126C59.0515 18.8549 59.127 18.9972 59.2036 19.1395C59.5451 19.7678 59.9041 20.3862 60.2861 20.9904C61.1694 22.3312 62.1053 23.7202 63.4899 24.5915C64.5549 25.2821 65.9833 25.2209 67.0735 24.6232C67.9863 24.0902 68.7405 23.197 68.9309 22.1375C69.0743 21.2487 68.885 20.3545 68.6453 19.4996C68.2611 18.1402 67.716 16.8344 67.1884 15.5264C67.0483 15.2472 66.9421 14.9539 66.8086 14.6726C66.223 13.3252 65.5455 12.0205 64.8855 10.7092C64.764 10.4991 64.6567 10.2801 64.5527 10.0612C64.4312 9.84232 64.3152 9.62231 64.1959 9.4034C63.6464 8.34387 63.0356 7.31717 62.3702 6.3266C61.4945 5.04597 60.4996 3.71827 59.0427 3.07029C57.1962 2.36868 55.0322 3.57379 54.3646 5.36667ZM20.6905 1.71194C25.6937 1.71742 30.698 1.72398 35.7024 1.70757L35.6969 1.79951L35.791 1.8017L35.7866 2.23514C35.1879 2.40371 34.5564 2.59854 34.1163 3.06372C33.6895 3.48403 33.5734 4.13748 33.7015 4.70775C33.9522 6.18321 34.68 7.5131 35.2908 8.86269C35.3685 9.00608 35.4561 9.14837 35.4999 9.30817C35.5535 9.41216 35.6082 9.51505 35.6619 9.61793C36.4193 11.2302 37.2139 12.8261 37.9801 14.434C38.0064 14.4909 38.0589 14.6036 38.0852 14.6595C38.141 14.8083 38.2144 14.9484 38.2899 15.0885C38.6599 15.9084 39.0769 16.7052 39.4556 17.5206C39.8431 16.7194 40.2108 15.9095 40.595 15.1082C40.6465 14.99 40.7001 14.8729 40.7494 14.7536C40.9212 14.4055 41.081 14.0498 41.2419 13.6974C41.9939 11.9373 42.6627 10.1094 42.8476 8.19282C42.9877 7.1913 42.9888 6.15475 42.8487 5.15323C42.7754 4.07291 42.2489 3.02213 41.3656 2.38072C41.1336 2.26907 41.1927 1.99543 41.1675 1.78747L41.2868 1.82359L41.2649 1.71085C44.3012 1.7218 47.3375 1.71632 50.3738 1.71304C50.3771 1.89145 50.3924 2.07096 50.3705 2.24828C49.681 2.48251 49.0428 2.85466 48.4912 3.3308C47.3857 4.23709 46.5155 5.39075 45.7351 6.57944C44.9032 7.87102 44.1534 9.21514 43.4792 10.5943C43.3883 10.7847 43.303 10.9774 43.2143 11.1678C42.5149 12.628 41.7881 14.0739 41.0821 15.5307C40.9891 15.7168 40.9081 15.9084 40.8139 16.0944C40.7395 16.2389 40.6717 16.3867 40.6049 16.5355C39.6012 18.6053 38.5811 20.6675 37.5883 22.7428C37.029 23.9249 36.4291 25.0873 35.8676 26.2683C35.7921 26.4139 35.721 26.5628 35.675 26.7204C35.5962 26.8189 35.5141 26.9152 35.4287 27.0094C35.27 26.7335 35.1365 26.4446 35.0062 26.1545C34.3725 24.8783 33.7343 23.6042 33.105 22.3257C33.0502 22.2108 32.9944 22.0959 32.9397 21.981C32.2074 20.4453 31.4237 18.9359 30.6882 17.4024C30.5919 17.2164 30.5021 17.027 30.4135 16.8387C30.2887 16.5903 30.1694 16.3396 30.0413 16.0944C29.3561 14.6168 28.5735 13.1851 27.8894 11.7074C27.8358 11.6002 27.7821 11.494 27.7274 11.3889C27.7001 11.3342 27.6464 11.2226 27.6201 11.1678C27.5709 11.0551 27.5205 10.9434 27.4691 10.8329C27.3815 10.6884 27.3038 10.5396 27.2469 10.3808C27.1933 10.2801 27.1407 10.1794 27.0871 10.0798C26.4599 8.78607 25.8108 7.50215 25.1672 6.21714C25.1103 6.11644 25.0534 6.01684 24.9976 5.91614C24.3737 4.72088 23.5977 3.50921 22.3827 2.84591C21.842 2.55585 21.2476 2.39057 20.6566 2.23733C20.6675 2.0622 20.6774 1.88707 20.6905 1.71194Z" fill="#3C3C3B"/>
</svg>
