<svg width="115" height="17" viewBox="0 0 115 17" fill="none" xmlns="http://www.w3.org/2000/svg">
<path d="M85.2026 15.7319L81.696 9.51716C83.2493 8.76585 84.2383 7.18165 84.24 5.44201C84.24 2.94135 82.2254 0.906775 79.7498 0.906775H72.2502V15.7313H75.5853V9.97724H78.2397L81.4863 15.7319H85.2026ZM75.5306 7.11548V3.77567H79.1249L79.1111 3.78137C80.2052 3.8407 80.9023 4.48134 80.9023 5.44885C80.9023 6.40582 80.1555 7.0764 79.0422 7.11634H75.5306V7.11548ZM58.63 15.7319V0.906775H69.5946V3.73545H62.0552V6.70132H68.6657V9.59303H62.0552V12.7554H69.9676V15.7319H58.63ZM42.9916 15.7319L39.485 9.51716C41.038 8.76585 42.0271 7.18137 42.0285 5.44201C42.0285 2.94135 40.0144 0.906775 37.539 0.906775H30.0389V15.7313H33.3743V9.97724H36.0296L39.2755 15.7319H42.9916ZM33.3187 7.11548V3.77567H36.9136L36.8995 3.78137C37.9936 3.8407 38.6913 4.48134 38.6913 5.44885C38.6913 6.40582 37.9442 7.0764 36.8306 7.11634H33.3187V7.11548ZM21.151 16.0972C25.1635 16.0972 27.5598 13.7666 27.5598 9.86343V0.917614H24.1349V9.63211C24.1349 11.7426 23.0472 12.9531 21.1512 12.9531H21.1493C19.2533 12.9531 18.1662 11.7428 18.1662 9.63211V0.917614H14.7398V9.864C14.7398 13.7669 17.1362 16.0975 21.1493 16.0975H21.151V16.0972ZM10.2603 7.52108C12.2368 8.20194 13.2002 9.90051 13.2002 11.5383C13.2002 13.8459 11.3454 15.7244 9.06312 15.7319H0.961548V0.905634H8.42331C10.3656 0.923889 11.9315 2.51864 11.9338 4.48105C11.9363 5.71897 11.3027 6.86961 10.2603 7.52051V7.52108ZM4.32381 12.9656H8.06839C9.24552 12.9656 9.86133 12.0789 9.86133 11.202C9.86133 10.4958 9.30538 9.50147 8.06839 9.50147H4.32381V12.9656ZM7.06575 6.73612C7.92806 6.73612 8.60458 6.06325 8.60458 5.20412C8.60458 4.37352 7.89869 3.67213 7.06519 3.67213H4.32381V6.73612H7.06575ZM53.8512 7.51823C55.8276 8.19852 56.791 9.89766 56.791 11.5355C56.791 13.8433 54.9363 15.721 52.654 15.729L44.5527 15.7284V0.902782L52.0133 0.902496C53.9562 0.921037 55.5221 2.51607 55.5244 4.47877C55.5267 5.71669 54.8933 6.86704 53.8509 7.51766L53.8512 7.51823ZM47.9147 12.9628H51.659C52.8361 12.9628 53.4519 12.076 53.4519 11.1992C53.4519 10.4932 52.8954 9.49862 51.659 9.49862H47.9147V12.9628ZM50.6558 6.73327C51.5192 6.73327 52.1957 6.0604 52.1957 5.20127C52.1957 4.37067 51.4898 3.66927 50.6558 3.66927H47.9147V6.73327H50.6558ZM99.7164 15.7319L96.2099 9.51716C97.7628 8.76585 98.7516 7.18137 98.753 5.44201C98.753 2.94135 96.7393 0.906775 94.2639 0.906775H86.764V15.7313H90.0994V9.97724H92.7544L96.0004 15.7319H99.7167H99.7164ZM90.0435 7.11548V3.77567H93.6385L93.6243 3.78137C94.7185 3.8407 95.4164 4.48134 95.4164 5.44885C95.4164 6.40582 94.6693 7.0764 93.5555 7.11634H90.0435V7.11548ZM104.59 15.7319V9.69087L98.768 0.906775H103.045L106.396 6.00364L109.762 0.906775H114.039L108.203 9.69087V15.7319H104.59Z" fill="#3C3C3B"/>
</svg>
