<svg width="103" height="30" viewBox="0 0 103 30" fill="none" xmlns="http://www.w3.org/2000/svg">
<path d="M21.9978 0.558716C21.1229 0.556623 20.1459 0.660017 19.0861 0.93368C19.0861 0.93368 13.6518 2.3026 7.66226 7.9796C7.66226 7.9796 4.80631 10.9188 2.78335 14.7034C2.78335 14.7034 0.681057 18.6491 0.363729 21.9507C0.363729 21.9507 0.0464016 25.6548 2.10903 27.5471C2.10903 27.5471 4.48899 29.7616 9.68522 29.3187C9.68522 29.3187 12.9378 28.9161 16.4681 26.6614C16.4681 26.6614 18.1737 25.534 19.2844 24.4872C19.2844 24.4872 18.7687 26.3795 19.5224 27.7485C19.5224 27.7485 20.2364 29.0368 21.8627 29.3187C21.8627 29.3187 23.0526 29.5603 24.7583 28.9161C24.7583 28.9161 25.8293 28.4329 26.5432 28.0706C26.5432 28.0706 28.0109 27.2653 29.4389 26.138C29.4389 26.138 29.1612 27.2653 29.7959 28.2316C29.7959 28.2316 30.5495 29.3187 31.9378 29.4395C31.9378 29.4395 35.6664 29.7213 40.8626 23.2391L37.2134 29.1979L40.5453 29.1576L43.4409 24.0846C43.4409 24.0846 46.4555 18.8505 47.0902 18.2063C47.0902 18.2063 48.6372 16.1126 50.9775 15.6295L52.5244 15.7502C52.5244 15.7502 53.1591 16.0723 53.1591 16.7971L52.0088 16.5958C52.0088 16.5958 51.3345 16.6763 50.9775 17.401C50.9775 17.401 50.6601 18.0855 50.8188 18.7699C50.8188 18.7699 51.0171 19.3336 51.5328 19.5349L51.8898 19.6557L53.0401 19.4947C53.0401 19.4947 55.0631 18.7297 57.8397 15.1866L57.205 16.3542L54.8647 20.4207L52.1278 25.3327C52.1278 25.3327 51.3345 26.9432 51.6915 27.9095C51.6915 27.9095 52.0484 28.8355 53.2384 29.0771L55.8167 28.8758C55.8167 28.8758 57.2843 28.4329 58.4743 27.3861L60.18 25.9769C60.18 25.9769 62.2426 24.2054 64.1069 22.1117L63.9879 22.2728C63.9879 22.2728 62.3616 25.2924 62.0839 26.299C62.0839 26.299 61.4493 28.4329 62.9169 29.2784L64.5829 29.4395C64.5829 29.4395 65.9712 29.2382 67.3595 28.2316L69.6205 26.2587C69.6205 26.2587 71.5641 24.4067 72.5954 23.078C72.5954 23.078 72.0797 24.2859 71.9607 25.1717C71.9607 25.1717 71.5641 27.99 74.1424 29.1174L76.562 29.3187C76.562 29.3187 77.514 29.2382 78.9816 28.7148C78.9816 28.7148 82.3929 27.5874 87.1925 23.1183C87.1925 23.1183 89.6121 20.8636 91.3177 18.8505L85.2885 29.1174H88.2635L90.4847 25.3327L93.3407 20.622C93.3407 20.622 94.967 18.0049 97.9419 16.3139C97.9419 16.3139 99.1319 15.5892 100.044 15.4282C100.044 15.4282 100.996 15.2268 101.195 15.71C101.195 15.71 99.8459 15.4282 99.5286 16.8373C99.5286 16.8373 99.2113 18.2465 100.322 18.6894C100.322 18.6894 101.155 18.9712 101.829 18.4881C101.829 18.4881 102.424 18.0452 102.623 17.1997C102.623 17.1997 102.781 16.3542 102.385 15.7502C102.385 15.7502 101.909 15.0255 100.798 14.945C100.798 14.945 99.5682 14.9047 97.109 16.5555C97.109 16.5555 95.2843 17.7634 94.5307 18.5284L96.5536 15.0255H93.539C93.539 15.0255 90.6831 19.9375 85.6455 24.1651C85.6455 24.1651 80.7269 28.2316 77.9503 28.3524C77.9503 28.3524 75.253 28.5537 74.9754 26.4601C74.9754 26.4601 74.8167 25.2119 75.5307 23.4404C75.5307 23.4404 77.1966 23.6014 79.4179 22.8767C79.4179 22.8767 81.5202 22.1922 83.2655 20.9844C83.2655 20.9844 85.1298 19.696 85.8042 18.327C85.8042 18.327 86.5975 16.7971 85.6852 15.5087C85.6852 15.5087 84.0192 13.8579 80.4096 15.3879C80.4096 15.3879 76.681 16.9581 73.9044 20.7025L73.1904 21.7896L73.1111 21.9104L71.1278 24.2456L69.1048 26.299C69.1048 26.299 66.6455 28.755 65.4159 28.0303C65.4159 28.0303 64.9399 27.7082 64.9399 26.9432C64.9399 26.9432 64.9399 26.1782 65.4952 25.2522L71.2468 15.1061H68.6685C68.6685 15.1061 67.2405 17.4815 65.5745 19.7362C65.5745 19.7362 62.3219 24.1248 58.7917 26.6614C58.7917 26.6614 56.372 28.5537 55.0234 27.9095C55.0234 27.9095 54.4284 27.6277 54.4681 26.8627C54.4681 26.8627 54.5077 26.0172 55.3011 24.8496L60.9336 15.1061L64.0672 15.0658L64.4639 14.6632H61.2906L64.6622 8.58354L61.8063 8.6238C61.8063 8.6238 59.823 12.0461 58.3157 14.0995C58.3157 14.0995 55.539 17.8036 53.2384 18.8102C53.2384 18.8102 53.6351 18.2868 53.6747 17.4815L53.6351 16.8373C53.6351 16.8373 53.4764 15.9918 52.6831 15.5892L51.9691 15.3879L50.6205 15.5087C50.6205 15.5087 49.0338 15.871 47.5662 17.1594L48.7958 15.0658H45.9399C45.9399 15.0658 43.3616 19.7362 39.99 23.7222C39.99 23.7222 35.5871 28.8758 33.1675 28.2719C33.1675 28.2719 32.4535 27.9095 32.4138 27.0237C32.4138 27.0237 32.4138 26.138 33.1675 24.8898L38.919 15.0255L36.0631 15.0658L35.1508 16.6763L34.5558 17.8439C34.5558 17.8439 34.6748 17.4815 34.5558 16.7165C34.5558 16.7165 34.3178 14.9047 32.6121 14.5424L31.2635 14.4216C31.2635 14.4216 27.8522 14.3813 23.965 17.8439C23.965 17.8439 21.3073 20.2596 19.2844 23.9235C19.2844 23.9235 15.2385 27.7485 10.9545 28.594C10.9545 28.594 7.1466 29.3992 5.5203 27.6679C5.5203 27.6679 3.73533 25.8159 3.73533 22.5949C3.73533 22.5949 3.775 18.7699 6.47228 13.5761C6.47228 13.5761 9.32823 9.30826 11.0735 7.37567C11.0735 7.37567 15.5161 2.42339 20.1174 1.17525C20.1174 1.17525 23.8856 0.168694 25.9879 1.89998C25.9879 1.89998 27.7729 3.38969 27.9316 6.40937L28.9629 4.63782C28.9629 4.63782 30.2718 2.54418 31.4222 1.3363C31.4222 1.3363 30.3512 1.81945 29.0422 1.9805C29.0422 1.9805 27.4159 2.18182 26.6226 1.69867C26.6226 1.69867 24.8555 0.565762 21.9978 0.558757L21.9978 0.558716ZM31.6849 14.7865C32.8471 14.7924 33.4451 15.3476 33.4451 15.3476C34.8334 16.636 33.7228 19.0518 33.7228 19.0518C31.5808 23.5612 28.4472 26.299 28.4472 26.299L26.5432 27.6679C23.5683 29.1576 22.299 28.1108 22.299 28.1108C21.2677 27.225 21.704 25.2119 21.704 25.2119C21.9817 23.843 23.0923 21.8701 23.0923 21.8701L25.2343 18.6894C27.1779 16.5152 29.3992 15.3879 29.3992 15.3879C30.3127 14.9312 31.0762 14.7833 31.6849 14.7865ZM82.7115 15.1413C82.7514 15.1408 82.7908 15.1425 82.8292 15.1463C82.8292 15.1463 83.4639 15.2268 83.7415 15.5489C83.7415 15.5489 84.0192 15.9516 83.9399 16.7568C83.9399 16.7568 83.7415 18.8907 81.4012 20.9038C81.4012 20.9038 78.7436 23.1988 75.6497 23.1183L76.2447 21.8701C76.2447 21.8701 77.5933 19.2128 79.5766 17.1594C79.5766 17.1594 81.4749 15.1567 82.7115 15.1413Z" fill="#3C3C3B"/>
</svg>
