<svg width="125" height="24" viewBox="0 0 125 24" fill="none" xmlns="http://www.w3.org/2000/svg">
<path d="M7.22949 14.0245C7.84834 14.6356 7.84834 15.5523 7.22949 16.1635L6.688 16.6983C6.06916 17.3094 5.14089 17.3094 4.52205 16.6983L1.04105 13.2605C0.422209 12.6493 0.422209 11.7326 1.04105 11.1215L1.58254 10.5867C2.20139 9.97554 3.12965 9.97554 3.7485 10.5867L7.22949 14.0245ZM6.84272 7.45452C6.22387 6.84336 5.29561 6.84336 4.67676 7.45452L4.13527 7.98928C3.51643 8.60044 3.51643 9.51717 4.13527 10.1283L7.61627 13.5661C8.23512 14.1772 9.16338 14.1772 9.78222 13.5661L10.3237 13.0313C10.9426 12.4202 10.9426 11.5034 10.3237 10.8923L6.84272 7.45452ZM16.1254 10.5103C15.5065 9.89914 14.5783 9.89914 13.9594 10.5103L13.4179 11.0451C12.7991 11.6562 12.7991 12.573 13.4179 13.1841L16.8989 16.6219C17.5178 17.233 18.446 17.233 19.0649 16.6219L19.6064 16.0871C20.2252 15.4759 20.2252 14.5592 19.6064 13.9481L16.1254 10.5103ZM19.297 7.37812C18.6781 6.76696 17.7498 6.76696 17.131 7.37812L16.5895 7.91288C15.9707 8.52404 15.9707 9.44077 16.5895 10.0519L20.0705 13.4897C20.6894 14.1008 21.6176 14.1008 22.2365 13.4897L22.778 12.9549C23.3968 12.3438 23.3968 11.427 22.778 10.8159L19.297 7.37812ZM13.4953 4.01676C14.1141 3.4056 14.1141 2.48887 13.4953 1.87771L12.9538 1.34295C12.335 0.731793 11.4067 0.731793 10.7878 1.34295L7.30685 4.78071C6.688 5.39186 6.688 6.3086 7.30685 6.91975L7.84834 7.45452C8.46718 8.06567 9.39545 8.06567 10.0143 7.45452L13.4953 4.01676ZM16.5895 7.07254C17.2084 6.46139 17.2084 5.54465 16.5895 4.9335L16.048 4.39873C15.4292 3.78758 14.5009 3.78758 13.8821 4.39873L10.4011 7.83649C9.78222 8.44765 9.78222 9.36438 10.4011 9.97554L10.9426 10.5103C11.5614 11.1215 12.4897 11.1215 13.1085 10.5103L16.5895 7.07254ZM13.4953 16.0871C14.1141 15.4759 14.1141 14.5592 13.4953 13.9481L12.9538 13.4133C12.335 12.8021 11.4067 12.8021 10.7878 13.4133L7.30685 16.851C6.688 17.4622 6.688 18.3789 7.30685 18.9901L7.84834 19.5249C8.46718 20.136 9.39545 20.136 10.0143 19.5249L13.4953 16.0871ZM16.5895 19.1429C17.2084 18.5317 17.2084 17.615 16.5895 17.0038L16.048 16.4691C15.4292 15.8579 14.5009 15.8579 13.8821 16.4691L10.4784 19.9832C9.85958 20.5944 9.85958 21.5111 10.4784 22.1223L11.0199 22.657C11.6388 23.2682 12.567 23.2682 13.1859 22.657L16.5895 19.1429ZM41.9621 16.1635C42.0395 16.3163 42.5036 17.0038 42.5036 17.0038C42.2715 18.0734 41.5753 19.5249 41.5753 19.5249L41.498 19.6013C38.9453 20.5944 34.9228 21.4347 30.6682 19.754C28.1155 18.7609 26.2589 16.7747 25.5627 14.1772C24.7892 11.5034 25.3307 8.60043 27.0325 6.3086C28.889 3.86397 31.8285 2.48887 35.851 2.25968C37.3981 2.18329 40.4924 2.56526 42.1942 3.55839H42.3489C42.3489 3.55839 42.4263 7.76009 42.3489 7.91288L42.2715 8.14207L41.0339 8.21846L40.9565 7.76009C40.7244 6.53778 40.1829 3.32921 35.619 3.55839C33.6851 3.63479 32.0606 4.62792 30.9003 6.15581C29.4305 8.06567 29.0437 10.5867 29.6626 13.4897C30.2814 16.2399 32.4474 17.997 34.0719 18.6845C34.7681 18.9137 36.934 19.4485 38.5585 18.6845C39.9509 17.997 41.3433 16.9274 41.9621 16.1635ZM57.5879 20.5944V6.15581C57.5879 5.69744 57.5879 4.9335 57.1238 4.39873C57.0464 4.32234 56.3502 3.78758 56.3502 3.78758V3.17642L60.2954 2.41247L60.6821 2.64166V18.1498C60.7595 19.6013 61.7651 19.754 61.7651 19.754V20.6708L57.5879 20.5944ZM74.9929 19.6013C74.2967 19.4485 73.91 18.8373 73.91 17.8442V8.67683L73.6005 8.52404L69.6554 9.28799V9.89914C69.6554 9.89914 70.3516 10.4339 70.4289 10.5103C70.8931 11.0451 70.8931 11.809 70.8931 12.2674V17.6914C69.578 18.6845 68.4177 18.9901 67.5668 18.6081C66.9479 18.3025 66.5612 17.5386 66.5612 16.4691V8.67683L66.2517 8.52404L62.3066 9.28799V9.89914C62.3066 9.89914 63.0028 10.4339 63.0802 10.5103C63.6217 11.0451 63.6217 11.809 63.5443 12.2674V16.9274C63.5443 17.8442 63.6217 18.1498 63.699 18.5317C63.9311 19.5249 64.5499 20.2124 65.4008 20.518C66.7932 21.0528 68.8045 20.518 70.8931 19.1429V20.4416H75.225V19.6013H74.9929ZM94.6412 19.6013C93.945 19.4485 93.6356 18.8373 93.5582 17.8442V12.2674C93.5582 10.9687 92.862 8.52404 90.3093 8.52404C88.3754 8.52404 87.1377 9.66996 86.4415 10.2811C86.0548 9.44078 85.2038 8.52404 83.6567 8.52404C82.4191 8.52404 81.3361 8.98241 80.2531 9.89914V8.75322L79.8663 8.52404L75.9212 9.28799V9.89914C75.9212 9.89914 76.6174 10.4339 76.6947 10.5103C77.1589 11.0451 77.1589 11.809 77.1589 12.2674V20.4416H81.4908V19.6013L81.2587 19.5249C80.5625 19.3721 80.2531 18.8373 80.2531 17.7678V11.1979C81.0266 10.5867 81.8002 10.4339 82.5738 10.5103C83.1926 10.5867 83.8888 11.0451 83.8888 13.3369V20.3652H88.1434V19.5249L87.9113 19.4485C87.2151 19.2957 86.9057 18.7609 86.8283 17.6914V12.1146C86.8283 11.9618 86.8283 11.5034 86.751 11.1979C87.5245 10.5103 88.2981 10.4339 89.0716 10.5103C89.6905 10.5867 90.3867 11.0451 90.3867 13.3369V20.3652H94.6412V19.5249V19.6013ZM56.1955 14.5592C56.1955 12.8021 55.5767 11.1979 54.4937 10.1283C53.3334 8.98241 51.7089 8.37125 49.6977 8.37125C45.9846 8.37125 43.1998 11.0451 43.1998 14.5592C43.1998 18.3025 45.7525 20.7472 49.6977 20.7472C51.5542 20.7472 53.256 20.136 54.4164 18.9901C55.5767 17.7678 56.1955 16.2399 56.1955 14.5592ZM49.6977 19.3721C47.2996 19.3721 46.6035 17.5386 46.6035 14.4828C46.6035 12.2674 47.2996 9.59356 49.6977 9.59356C52.0957 9.59356 52.7919 12.2674 52.7919 14.4828C52.7919 17.5386 52.0957 19.3721 49.6977 19.3721ZM109.184 4.78071C109.184 3.94037 109.88 3.17642 110.809 3.17642C111.659 3.17642 112.433 3.86397 112.433 4.78071C112.433 5.69744 111.737 6.38499 110.809 6.38499C109.88 6.38499 109.184 5.62105 109.184 4.78071ZM109.339 20.4416V12.191C109.339 11.7326 109.339 10.9687 108.875 10.4339C108.797 10.3575 108.101 9.82275 108.101 9.82275V9.21159L112.046 8.44765L112.433 8.67683V17.8442C112.433 18.8373 112.82 19.4485 113.439 19.6013L113.671 19.6776V20.518L109.339 20.4416ZM107.095 11.3506C106.245 9.89914 105.162 8.98241 103.847 8.67683C101.99 8.21846 100.133 9.0588 98.9731 9.66996V2.56526L98.5863 2.33608L94.6412 3.10003V3.71118C94.6412 3.71118 95.3374 4.24594 95.4148 4.32234C95.8789 4.8571 95.8789 5.54465 95.8789 6.07941V19.6013L96.0336 19.6776C98.2769 20.8236 101.216 20.9764 103.382 20.136C105.78 19.1429 106.863 17.4622 107.25 16.2399C108.024 14.33 107.714 12.4202 107.095 11.3506ZM103.847 17.7678C103.15 18.9137 101.758 19.6013 100.675 19.2957C99.592 18.9901 98.9731 17.8442 98.9731 16.0871V11.1215C98.9731 11.1215 99.0505 11.1215 99.1278 11.0451C99.824 10.7395 101.062 10.0519 102.686 10.8923C103.537 11.3506 104.233 12.191 104.543 13.2605C104.929 14.712 104.697 16.3163 103.847 17.7678ZM124.346 19.2193L124.114 19.1429C123.959 19.1429 123.65 18.6845 123.65 17.997V12.573C123.65 10.9687 123.108 9.74635 122.18 9.1352C121.329 8.52404 120.169 8.44765 118.776 8.90601C117.152 9.44077 114.754 11.5034 114.367 11.9618L114.29 12.0382V12.191C114.29 12.3438 114.522 12.573 114.599 12.7257L114.676 12.8021H117.384V12.0382C117.384 10.9687 118.08 10.4339 118.699 10.3575C119.318 10.2811 119.704 10.2811 120.014 10.5103C120.401 10.8159 120.633 11.5798 120.633 12.8021V13.4897L114.986 15.9343L114.908 16.0107V16.0871C114.367 17.615 114.522 18.8373 115.218 19.6776C116.378 20.9764 119.24 21.1291 123.417 20.2124C123.727 20.136 124.423 20.0596 124.423 20.0596C124.346 19.9832 124.346 19.2193 124.346 19.2193ZM120.71 14.712V18.9137C119.782 19.5249 118.853 19.6013 118.157 19.0665C117.461 18.4553 117.306 17.3858 117.771 16.3163L120.71 14.712Z" fill="#3C3C3B"/>
</svg>
