<?xml version="1.0" encoding="utf-8"?>
<!-- Generator: Adobe Illustrator 21.0.2, SVG Export Plug-In . SVG Version: 6.00 Build 0)  -->
<svg version="1.1" id="Layer_1" xmlns="http://www.w3.org/2000/svg" xmlns:xlink="http://www.w3.org/1999/xlink" x="0px" y="0px"
	 viewBox="0 0 115 23" style="enable-background:new 0 0 115 23;" xml:space="preserve">
<style type="text/css">
	.st0{fill:#3C3C3B;}
</style>
<path class="st0" d="M62.3,4.2V1H51.6v3.2h3.5V19h-3.5v3.2h10.7V19h-3.5V4.2H62.3z M25.4,1v3.2H29V19h-3.6v3.2h23.9V15h-3.6v4.1
	H32.7v-5.7h5.8v2.1h3.6V7.6h-3.6v2.5h-5.8V4.2h12.9v4.3h3.6V1H25.4z M20,16.2c0,1.8-1.6,3.5-6.7,3.5c-2.4,0-8.1-1-8.1-3.5v-1.4H1.4
	v7.4h3.6v-1.3c1.1,0.6,4.2,1.9,8.4,1.9c4.1,0,7.2-0.8,8.5-2.5c0.9-1.2,1.6-2.5,1.6-4.2c0-3-2.1-5.2-4.8-5.8
	c-0.5-0.1-2.4-0.3-3.4-0.3c-3.1,0.1-6-0.1-8.2-0.3c-1.4-0.2-2.5-1-2.5-2.6c0-0.7,0.2-1.4,0.7-1.8C6.5,4,8.8,3.5,11.6,3.6
	c2.7,0.1,4.6,0.8,6.1,1.5c1.3,0.6,1.8,1.3,1.8,2.4v1h3.7V1h-3.7v1.5c-1.2-0.7-4.3-2-8.5-2c-4.4,0-6.7,0.8-8.1,2.3C1.8,3.7,1,5.4,1,7
	c0,2.5,1.4,4.3,3.4,5.1c2.2,0.8,6.8,1,9.1,1.1c2.1,0.1,4,0,5.3,0.7C19.6,14.3,20,15.2,20,16.2z M80,22.3h10.8V19h-3.1l-7.7-9.3
	l7.3-5.6h3.1V1H80v3.2h2.2l-10.5,8.2V4.2h3.5V1H64.4v3.2H68V19h-3.5v3.2h10.8V19h-3.5v-2.7l5.4-4.3l5.8,7h-3V22.3z"/>
<path class="st0" d="M101.9,22.9c7.2,0,11.9-5.1,11.9-11.2c0-5.8-4.2-11.3-12-11.3c-6.8,0-11.7,5-11.7,11.2
	C90,17.9,94.8,22.9,101.9,22.9z M93.6,11.6c0-4.4,3.5-8.1,8.2-8.1c4.7,0,8.2,3.7,8.2,8.1c0,4.4-3.6,8.1-8.2,8.1
	C97.1,19.6,93.6,16.1,93.6,11.6z"/>
</svg>
